<?xml version="1.0" encoding="utf-8"?>
<!-- Generator: Adobe Illustrator 22.0.1, SVG Export Plug-In . SVG Version: 6.00 Build 0)  -->
<svg version="1.1" xmlns="http://www.w3.org/2000/svg" xmlns:xlink="http://www.w3.org/1999/xlink" x="0px" y="0px"
	 viewBox="0 0 68 68" style="enable-background:new 0 0 68 68;" xml:space="preserve">
<style type="text/css">
	.st0{fill:#FFFFFF;}
</style>
<g id="Layer_3">
	<path class="st0" d="M64.6,16.2C63,9.9,58.1,5,51.8,3.4C40,1.5,28,1.5,16.2,3.4C9.9,5,5,9.9,3.4,16.2C1.5,28,1.5,40,3.4,51.8
		C5,58.1,9.9,63,16.2,64.6c11.8,1.9,23.8,1.9,35.6,0C58.1,63,63,58.1,64.6,51.8C66.5,40,66.5,28,64.6,16.2z"/>
	<path class="st0" d="M8.3,17.4v-0.3h7.5c2.7,0,4.6,0.3,5.8,0.9c1.2,0.6,2.1,1.3,2.7,2.2c0.6,0.9,0.8,2.1,0.8,3.5
		c0,2.2-0.8,3.9-2.3,5c-1.5,1.1-5.3,3.5-8,3.4V32c1.7,0,3-0.5,4.1-1.5c1-1,3.3-4.2,3.3-5.9c0-1.3-0.3-2.5-0.8-3.5
		c-0.5-1-1.2-1.8-2.1-2.3c-0.9-0.5-2.3-0.8-4.2-0.8h-1.9v22.6c0,1.3,0.1,2,0.4,2.3s0.8,0.4,1.6,0.4l14.3,0.3H8.3v-0.3
		c1.2,0,1.9-0.6,1.9-1.7V19.7c0-0.9-0.1-1.6-0.4-1.9C9.6,17.6,9.1,17.4,8.3,17.4z"/>
	<path class="st0" d="M27.6,17.2h7.1v0.3c-0.9,0-1.5,0.2-1.7,0.6c-0.2,0.4-0.3,1-0.3,1.8v22.5c0,2.1-0.1,12-0.2,13s-0.5,2-1,2.8
		c-0.5,0.8-1.2,1.4-2,1.9c-0.8,0.5-1.8,0.7-2.9,0.7c-1.1,0-2.1-0.2-3.2-0.6l0-0.3c0.3,0.1,0.8,0.2,1.4,0.2c1.6,0,2.7-0.6,3.6-1.7
		c0.8-1.1,1.2-3.1,1.2-5.8V19.9c0-1.1-0.1-1.8-0.4-2c-0.3-0.3-0.8-0.4-1.6-0.4V17.2z"/>
	<path class="st0" d="M37.3,17.4v-0.3h7.5c1.9,0,3.3,0,4.1,0.1s1.7,0.4,2.6,0.8c0.9,0.5,1.6,1.1,2,1.9c0.5,0.8,0.7,1.8,0.7,3
		c0,1.3-0.4,2.6-1.2,3.8c-0.8,1.2-1.9,2.2-3.4,3.1l1.9,2.9c0.4,0.7,1.5,2.3,3.2,4.7c1.8,2.4,3.1,3.9,4.1,4.4s1.9,0.8,2.8,0.8
		c0.9,0,1.9-0.3,3.1-1l0.1,0.4c-1.4,1.2-3.3,1.8-5.6,1.8c-1.5,0-2.8-0.5-3.9-1.4c-1.1-0.9-3-3.4-5.7-7.5c0,0,0,0,0-0.1l-2.7-4.1
		l-2.4,0.1h-2.1V41c0,0.8,0.1,1.4,0.3,1.7c0.2,0.4,0.7,0.5,1.5,0.5v0.3H29.6l7.7-0.3c0.8,0,1.4-0.2,1.6-0.5c0.2-0.3,0.3-1,0.3-2v-21
		c0-0.7-0.1-1.2-0.3-1.7C38.8,17.7,38.2,17.4,37.3,17.4z M42.3,17.9v12.4H45c2.2,0,3.8-0.5,4.9-1.5c1.1-1,1.6-2.4,1.6-4.1
		c0-1.6-0.5-3.2-1.6-4.6c-1-1.5-2.9-2.2-5.5-2.2H42.3z"/>
</g>
<g id="Layer_1">
</g>
</svg>
