<?xml version="1.0" encoding="utf-8"?>
<!-- Generator: Adobe Illustrator 22.0.1, SVG Export Plug-In . SVG Version: 6.00 Build 0)  -->
<svg version="1.1" id="Layer_2_1_" xmlns="http://www.w3.org/2000/svg" xmlns:xlink="http://www.w3.org/1999/xlink" x="0px" y="0px"
	 viewBox="0 0 232 68" style="enable-background:new 0 0 232 68;" xml:space="preserve">
<style type="text/css">
	.st0{fill:#E233A8;}
	.st1{fill:#FFFFFF;}
	.st2{enable-background:new    ;}
	.st3{fill:#606060;}
</style>
<path class="st0" d="M66.3,16.2C64.7,9.9,59.8,5,53.5,3.4c-11.8-1.9-23.8-1.9-35.6,0C11.6,5,6.7,9.9,5.1,16.2
	C3.2,28,3.2,40,5.1,51.8c1.6,6.3,6.5,11.2,12.8,12.8c11.8,1.9,23.8,1.9,35.6,0c6.3-1.6,11.2-6.5,12.8-12.8
	C68.2,40,68.2,28,66.3,16.2z"/>
<path class="st1" d="M10,17.4v-0.3h7.5c2.7,0,4.6,0.3,5.8,0.9c1.2,0.6,2.1,1.3,2.7,2.2c0.6,0.9,0.8,2.1,0.8,3.5c0,2.2-0.8,3.9-2.3,5
	s-5.3,3.5-8,3.4V32c1.7,0,3-0.5,4.1-1.5c1-1,3.3-4.2,3.3-5.9c0-1.3-0.3-2.5-0.8-3.5s-1.2-1.8-2.1-2.3S18.7,18,16.8,18h-1.9v22.6
	c0,1.3,0.1,2,0.4,2.3s0.8,0.4,1.6,0.4l14.3,0.3H10v-0.3c1.2,0,1.9-0.6,1.9-1.7V19.7c0-0.9-0.1-1.6-0.4-1.9
	C11.3,17.6,10.8,17.4,10,17.4z"/>
<path class="st1" d="M29.3,17.2h7.1v0.3c-0.9,0-1.5,0.2-1.7,0.6s-0.3,1-0.3,1.8v22.5c0,2.1-0.1,12-0.2,13s-0.5,2-1,2.8
	s-1.2,1.4-2,1.9s-1.8,0.7-2.9,0.7s-2.1-0.2-3.2-0.6v-0.3c0.3,0.1,0.8,0.2,1.4,0.2c1.6,0,2.7-0.6,3.6-1.7c0.8-1.1,1.2-3.1,1.2-5.8
	V19.9c0-1.1-0.1-1.8-0.4-2c-0.3-0.3-0.8-0.4-1.6-0.4C29.3,17.5,29.3,17.2,29.3,17.2z"/>
<path class="st1" d="M39,17.4v-0.3h7.5c1.9,0,3.3,0,4.1,0.1s1.7,0.4,2.6,0.8c0.9,0.5,1.6,1.1,2,1.9c0.5,0.8,0.7,1.8,0.7,3
	c0,1.3-0.4,2.6-1.2,3.8c-0.8,1.2-1.9,2.2-3.4,3.1l1.9,2.9c0.4,0.7,1.5,2.3,3.2,4.7c1.8,2.4,3.1,3.9,4.1,4.4s1.9,0.8,2.8,0.8
	c0.9,0,1.9-0.3,3.1-1l0.1,0.4c-1.4,1.2-3.3,1.8-5.6,1.8c-1.5,0-2.8-0.5-3.9-1.4c-1.1-0.9-3-3.4-5.7-7.5c0,0,0,0,0-0.1l-2.7-4.1
	l-2.4,0.1H44V41c0,0.8,0.1,1.4,0.3,1.7c0.2,0.4,0.7,0.5,1.5,0.5v0.3H31.3l7.7-0.3c0.8,0,1.4-0.2,1.6-0.5c0.2-0.3,0.3-1,0.3-2v-21
	c0-0.7-0.1-1.2-0.3-1.7C40.5,17.7,39.9,17.4,39,17.4z M44,17.9v12.4h2.8c2.2,0,3.8-0.5,4.9-1.5c1.1-1,1.6-2.4,1.6-4.1
	c0-1.6-0.5-3.2-1.6-4.6c-1-1.5-2.9-2.2-5.5-2.2C46.2,17.9,44,17.9,44,17.9z"/>
<g>
	<g class="st2">
		<path class="st3" d="M79,41.3c-1.3-0.6-2.3-1.5-3.1-2.6c-0.7-1.1-1.1-2.4-1.1-3.8V24.7h4.9v10c0,1.2,0.3,2.2,1,2.9
			c0.7,0.7,1.6,1,3,1s2.3-0.3,2.9-1c0.6-0.7,1-1.6,1-2.9V19h4.9v16c0,1.4-0.4,2.7-1.1,3.8c-0.7,1.1-1.7,2-3.1,2.6s-2.9,0.9-4.6,0.9
			C81.9,42.3,80.3,42,79,41.3z"/>
		<path class="st3" d="M76.4,21.8c-0.5-0.5-0.7-1.3-0.7-2.3v-2.3h4.1v1.6c0,0.3,0.1,0.5,0.2,0.6c0.1,0.1,0.4,0.2,0.7,0.2h4.9v3.1
			h-6.8C77.7,22.6,76.9,22.3,76.4,21.8z"/>
		<path class="st3" d="M109.4,40.4c-1.1-1.2-1.7-2.8-1.7-4.7v-4.2c0-1.2-0.3-2.1-0.8-2.7c-0.6-0.6-1.4-0.9-2.6-0.9
			c-0.9,0-1.6,0.1-2.3,0.4c-0.7,0.3-1.3,0.7-1.9,1.2l1.2,2v5c0,0.5,0.1,0.9,0.4,1.1c0.2,0.2,0.6,0.3,1.2,0.3h1.6v3.7h-4.3
			c-1.2,0-2.1-0.3-2.7-1s-1-1.6-1-2.8v-6.4L95,28.9c1.2-1.5,2.6-2.7,4.1-3.5c1.5-0.8,3.3-1.2,5.2-1.2c2.6,0,4.7,0.6,6.1,1.8
			c1.4,1.2,2.1,2.9,2.1,5.1v4.3c0,2.1,1,3.1,3.1,3.1c0.8,0,1.5-0.2,2.2-0.6c0.6-0.4,1.2-1,1.6-1.7V24.7h4.8v17.1h-4.6v-1.9
			c-0.7,0.8-1.5,1.4-2.5,1.8c-0.9,0.4-2,0.6-3,0.6C112.1,42.3,110.5,41.7,109.4,40.4z"/>
		<path class="st3" d="M141.2,40.4c-1.1-1.2-1.7-2.8-1.7-4.7v-4.2c0-1.2-0.3-2.1-0.8-2.7s-1.4-0.9-2.6-0.9c-0.9,0-1.6,0.1-2.3,0.4
			c-0.7,0.3-1.3,0.7-1.9,1.2l1.2,2v5c0,0.5,0.1,0.9,0.4,1.1c0.2,0.2,0.6,0.3,1.2,0.3h1.6v3.7h-4.3c-1.2,0-2.1-0.3-2.7-1
			c-0.6-0.7-1-1.6-1-2.8v-6.4l-1.6-2.7c1.2-1.5,2.6-2.7,4.1-3.5c1.5-0.8,3.3-1.2,5.2-1.2c2.6,0,4.7,0.6,6.1,1.8
			c1.4,1.2,2.1,2.9,2.1,5.1v4.3c0,2.1,1,3.1,3.1,3.1c0.8,0,1.5-0.2,2.2-0.6c0.6-0.4,1.2-1,1.6-1.7V24.7h4.8v17.1h-4.6v-1.9
			c-0.7,0.8-1.5,1.4-2.5,1.8c-0.9,0.4-2,0.6-3,0.6C143.9,42.3,142.3,41.7,141.2,40.4z"/>
		<path class="st3" d="M147.3,20.1c0-0.9,0.3-1.6,0.8-2.1c0.5-0.5,1.3-0.7,2.4-0.7h7.2v3h-5.1c-0.3,0-0.5,0.1-0.7,0.2
			c-0.1,0.1-0.2,0.4-0.2,0.7v1.3h-4.3V20.1z"/>
		<path class="st3" d="M159.2,32.4h4.8l1.4,5.8c1.5,0,2.7-0.5,3.7-1.4c1-0.9,1.5-2.1,1.5-3.7c0-1.7-0.5-3-1.4-3.8
			c-0.9-0.9-2.5-1.3-4.7-1.3c-1,0-2.1,0.1-3.2,0.3c-1.1,0.2-2,0.5-2.7,0.8v-3.7c0.9-0.4,1.9-0.7,3.1-0.9c1.2-0.2,2.4-0.3,3.6-0.3
			c3.3,0,5.8,0.8,7.6,2.3c1.7,1.5,2.6,3.7,2.6,6.6c0,1.7-0.4,3.3-1.3,4.6c-0.9,1.3-2,2.3-3.5,3.1c-1.5,0.7-3.1,1.1-4.8,1.1h-4.4
			L159.2,32.4z"/>
		<path class="st3" d="M180.8,41.9c-1.3-0.2-2.3-0.6-3.1-1.1v-3.7c0.9,0.6,2,1,3.2,1.3c1.2,0.3,2.2,0.4,3.2,0.4c1.1,0,2-0.1,2.5-0.3
			c0.5-0.2,0.8-0.6,0.8-1.2c0-0.5-0.3-0.9-0.8-1.2c-0.5-0.3-1.4-0.6-2.8-1.1l-0.8-0.3c-1.8-0.6-3.2-1.3-4.1-2.1
			c-0.9-0.8-1.3-1.9-1.3-3.3c0-1.6,0.7-2.9,2-3.8c1.3-0.9,3.1-1.4,5.3-1.4c1.2,0,2.4,0.1,3.5,0.4c1.1,0.3,2,0.6,2.7,1v3.8
			c-0.7-0.5-1.5-0.8-2.5-1.1c-1-0.3-2-0.4-3-0.4c-2.1,0-3.1,0.5-3.1,1.6c0,0.5,0.2,0.9,0.7,1.2c0.5,0.3,1.4,0.6,2.6,1l1.2,0.4
			c1.3,0.4,2.4,0.9,3.2,1.4c0.8,0.5,1.3,1.1,1.6,1.7c0.3,0.6,0.4,1.4,0.4,2.3c0,1.5-0.6,2.7-1.9,3.6c-1.3,0.9-3.2,1.3-5.7,1.3
			C183.4,42.3,182.1,42.2,180.8,41.9z"/>
		<path class="st3" d="M176.8,19.5h10.4v-3.4h4.4v6.5h-14.8V19.5z"/>
		<path class="st3" d="M196.7,40.8c-1.6-1-2.4-2.4-2.4-4.2c0-0.8,0.2-1.6,0.7-2.3c0.5-0.7,1.1-1.2,1.8-1.5c-0.7-0.4-1.3-0.9-1.7-1.6
			c-0.4-0.7-0.7-1.4-0.7-2.2c0-1.5,0.5-2.7,1.6-3.6c1.1-0.9,2.6-1.3,4.6-1.3c0.6,0,1.2,0,1.8,0.1c0.6,0.1,1.1,0.2,1.4,0.3v3.6
			c-0.3-0.1-0.7-0.2-1.1-0.3c-0.4-0.1-0.8-0.1-1.1-0.1c-1.5,0-2.2,0.6-2.2,1.7c0,0.6,0.2,1,0.6,1.3c0.4,0.3,1,0.4,1.7,0.4h2.1v3.4
			h-2.1c-1.6,0-2.4,0.6-2.4,1.9c0,0.7,0.3,1.2,1,1.6c0.7,0.4,1.6,0.6,2.8,0.6c1.5,0,2.6-0.3,3.3-0.9c0.7-0.6,1-1.5,1-2.7V24.6h4.9
			V35c0,1.2-0.3,2.4-0.9,3.5c-0.6,1.1-1.6,2-3,2.7c-1.4,0.7-3.1,1.1-5.3,1.1C200.4,42.3,198.3,41.8,196.7,40.8z"/>
		<path class="st3" d="M203.6,20.1c0-0.9,0.3-1.6,0.8-2.1c0.5-0.5,1.3-0.7,2.4-0.7h7.2v3h-5.1c-0.3,0-0.5,0.1-0.7,0.2
			c-0.1,0.1-0.2,0.4-0.2,0.7v1.3h-4.3V20.1z"/>
	</g>
</g>
<g>
	<g class="st2">
		<path class="st3" d="M75.4,57.4c-0.6-0.3-1-0.7-1.3-1.3c-0.3-0.5-0.5-1.2-0.5-1.9s0.2-1.3,0.5-1.9c0.3-0.5,0.7-1,1.3-1.3
			s1.2-0.5,1.9-0.5s1.3,0.2,1.9,0.5s1,0.7,1.3,1.3c0.3,0.5,0.5,1.2,0.5,1.9s-0.2,1.3-0.5,1.9c-0.3,0.5-0.8,1-1.3,1.3
			c-0.6,0.3-1.2,0.5-1.8,0.5S76,57.7,75.4,57.4z M78.7,56.8c0.4-0.2,0.8-0.6,1-1c0.3-0.4,0.4-1,0.4-1.5c0-0.6-0.1-1.1-0.4-1.5
			c-0.2-0.4-0.6-0.8-1-1c-0.4-0.2-0.9-0.4-1.4-0.4c-0.5,0-1,0.1-1.5,0.4c-0.4,0.2-0.8,0.6-1,1c-0.3,0.4-0.4,1-0.4,1.5
			c0,0.6,0.1,1.1,0.4,1.5c0.3,0.4,0.6,0.8,1,1c0.4,0.2,0.9,0.4,1.4,0.4S78.3,57,78.7,56.8z"/>
		<path class="st3" d="M82.3,53.5h-0.7v-0.6h0.7v-1c0-0.5,0.1-0.9,0.4-1.2c0.3-0.3,0.7-0.4,1.1-0.4c0.3,0,0.5,0,0.7,0.1V51
			c-0.2-0.1-0.4-0.1-0.6-0.1c-0.3,0-0.5,0.1-0.7,0.2c-0.1,0.2-0.2,0.4-0.2,0.7v1h1.2v0.6H83v4.2h-0.8V53.5z"/>
		<path class="st3" d="M85.4,53.5h-0.7v-0.6h0.7v-1c0-0.5,0.1-0.9,0.4-1.2c0.3-0.3,0.7-0.4,1.1-0.4c0.3,0,0.5,0,0.7,0.1V51
			c-0.2-0.1-0.4-0.1-0.6-0.1c-0.3,0-0.5,0.1-0.7,0.2c-0.1,0.2-0.2,0.4-0.2,0.7v1h1.2v0.6h-1.2v4.2h-0.8V53.5z"/>
		<path class="st3" d="M89.1,57.5c-0.4-0.2-0.7-0.5-0.9-0.9c-0.2-0.4-0.3-0.8-0.3-1.3c0-0.5,0.1-1,0.3-1.3s0.5-0.7,0.9-0.9
			c0.4-0.2,0.9-0.3,1.4-0.3c0.4,0,0.7,0,1,0.1c0.3,0.1,0.5,0.2,0.7,0.3v0.6c-0.4-0.3-1-0.4-1.6-0.4c-0.6,0-1.1,0.2-1.4,0.5
			c-0.4,0.3-0.5,0.8-0.5,1.4c0,0.6,0.2,1.1,0.5,1.4c0.4,0.3,0.8,0.5,1.4,0.5c0.3,0,0.7,0,0.9-0.1c0.3-0.1,0.5-0.2,0.8-0.4v0.6
			c-0.2,0.2-0.5,0.3-0.8,0.3s-0.6,0.1-1,0.1C90,57.8,89.5,57.7,89.1,57.5z"/>
		<path class="st3" d="M94,57.1c-0.5-0.4-0.7-1.1-0.7-1.9c0-0.8,0.2-1.4,0.7-1.9s1.1-0.7,1.9-0.7c0.5,0,1,0.1,1.4,0.3
			c0.4,0.2,0.7,0.5,0.9,0.9c0.2,0.4,0.3,0.8,0.3,1.2v0.4H94c0,0.5,0.2,0.9,0.6,1.2c0.4,0.3,0.9,0.4,1.5,0.4c0.3,0,0.6,0,0.9-0.1
			c0.3-0.1,0.6-0.1,0.8-0.2v0.6c-0.2,0.1-0.5,0.1-0.8,0.2c-0.3,0.1-0.7,0.1-1,0.1C95.1,57.8,94.5,57.6,94,57.1z M97.6,55
			c0-0.5-0.2-0.9-0.5-1.2s-0.7-0.4-1.3-0.4c-0.6,0-1,0.2-1.3,0.5C94.1,54.1,94,54.5,94,55H97.6z"/>
		<path class="st3" d="M103.2,50.7h0.8l2.6,5.7l2.6-5.7h0.8v6.9h-0.8v-5.3l-2.4,5.3h-0.4l-2.4-5.3v5.3h-0.8V50.7z"/>
		<path class="st3" d="M111.7,57.4c-0.3-0.3-0.5-0.7-0.5-1.2c0-0.5,0.2-0.9,0.5-1.2c0.3-0.3,0.8-0.4,1.4-0.4c0.7,0,1.3,0.1,1.8,0.4
			v-0.4c0-0.4-0.1-0.7-0.4-1c-0.2-0.2-0.6-0.3-1.2-0.3c-0.6,0-1.1,0.1-1.6,0.3V53c0.2-0.1,0.4-0.2,0.8-0.2c0.3-0.1,0.6-0.1,0.9-0.1
			c0.8,0,1.3,0.2,1.7,0.5s0.5,0.8,0.5,1.4v3h-0.7V57c-0.4,0.5-1,0.8-1.9,0.8C112.5,57.8,112.1,57.7,111.7,57.4z M114.2,57
			c0.3-0.1,0.5-0.3,0.6-0.6v-0.8c-0.3-0.2-0.5-0.3-0.8-0.3s-0.5-0.1-0.9-0.1c-0.4,0-0.8,0.1-1,0.3c-0.2,0.2-0.3,0.4-0.3,0.8
			c0,0.7,0.4,1,1.3,1C113.6,57.2,114,57.1,114.2,57z"/>
		<path class="st3" d="M117,52.9h0.7v0.7c0.2-0.3,0.5-0.5,0.8-0.7c0.3-0.1,0.7-0.2,1.1-0.2c0.6,0,1.1,0.2,1.4,0.5
			c0.3,0.3,0.5,0.8,0.5,1.3v3.1h-0.8v-3c0-0.4-0.1-0.7-0.3-0.9c-0.2-0.2-0.5-0.3-1-0.3c-0.7,0-1.3,0.3-1.7,1v3.3H117V52.9z"/>
		<path class="st3" d="M123,57.4c-0.3-0.3-0.5-0.7-0.5-1.2c0-0.5,0.2-0.9,0.5-1.2c0.3-0.3,0.8-0.4,1.4-0.4c0.7,0,1.3,0.1,1.8,0.4
			v-0.4c0-0.4-0.1-0.7-0.4-1c-0.2-0.2-0.6-0.3-1.2-0.3c-0.6,0-1.1,0.1-1.6,0.3V53c0.2-0.1,0.4-0.2,0.8-0.2c0.3-0.1,0.6-0.1,0.9-0.1
			c0.8,0,1.3,0.2,1.7,0.5c0.4,0.3,0.5,0.8,0.5,1.4v3h-0.7V57c-0.4,0.5-1,0.8-1.9,0.8C123.8,57.8,123.3,57.7,123,57.4z M125.5,57
			c0.3-0.1,0.5-0.3,0.6-0.6v-0.8c-0.3-0.2-0.5-0.3-0.8-0.3s-0.5-0.1-0.9-0.1c-0.4,0-0.8,0.1-1,0.3c-0.2,0.2-0.3,0.4-0.3,0.8
			c0,0.7,0.4,1,1.3,1C124.9,57.2,125.2,57.1,125.5,57z"/>
		<path class="st3" d="M129.8,59.9c-0.3-0.1-0.6-0.1-0.8-0.2V59c0.5,0.2,1.1,0.3,1.7,0.3c0.6,0,1.1-0.1,1.4-0.4
			c0.3-0.3,0.5-0.7,0.5-1.3v-0.7c-0.4,0.6-1.1,1-2,1c-0.5,0-0.9-0.1-1.3-0.3s-0.7-0.5-0.9-0.9s-0.3-0.8-0.3-1.3
			c0-0.5,0.1-0.9,0.3-1.3s0.5-0.7,0.9-0.9s0.8-0.3,1.3-0.3c0.5,0,0.9,0.1,1.2,0.2s0.6,0.4,0.9,0.7v-0.8h0.7v4.6
			c0,0.8-0.2,1.4-0.7,1.8c-0.4,0.4-1.1,0.6-2,0.6C130.4,59.9,130.1,59.9,129.8,59.9z M131.9,56.8c0.3-0.2,0.6-0.6,0.7-1v-1.2
			c-0.1-0.4-0.4-0.7-0.7-1c-0.3-0.2-0.7-0.3-1.2-0.3c-0.3,0-0.7,0.1-1,0.2c-0.3,0.2-0.5,0.4-0.7,0.7c-0.2,0.3-0.2,0.6-0.2,1
			c0,0.4,0.1,0.7,0.2,1s0.4,0.5,0.7,0.7c0.3,0.2,0.6,0.2,1,0.2C131.2,57.2,131.6,57.1,131.9,56.8z"/>
		<path class="st3" d="M135.3,57.1c-0.5-0.4-0.7-1.1-0.7-1.9c0-0.8,0.2-1.4,0.7-1.9s1.1-0.7,1.9-0.7c0.5,0,1,0.1,1.4,0.3
			s0.7,0.5,0.9,0.9c0.2,0.4,0.3,0.8,0.3,1.2v0.4h-4.3c0,0.5,0.2,0.9,0.6,1.2c0.4,0.3,0.9,0.4,1.5,0.4c0.3,0,0.6,0,0.9-0.1
			c0.3-0.1,0.6-0.1,0.8-0.2v0.6c-0.2,0.1-0.5,0.1-0.8,0.2s-0.7,0.1-1,0.1C136.4,57.8,135.8,57.6,135.3,57.1z M138.9,55
			c0-0.5-0.2-0.9-0.5-1.2s-0.7-0.4-1.3-0.4c-0.6,0-1,0.2-1.3,0.5c-0.3,0.3-0.5,0.7-0.5,1.2H138.9z"/>
		<path class="st3" d="M140.8,52.9h0.7v0.7c0.5-0.6,1-0.9,1.7-0.9c0.4,0,0.7,0.1,0.9,0.2c0.2,0.1,0.4,0.3,0.5,0.6
			c0.2-0.3,0.5-0.5,0.8-0.6c0.3-0.1,0.6-0.2,1-0.2c0.6,0,1,0.1,1.2,0.4c0.3,0.3,0.4,0.7,0.4,1.3v3.2h-0.8v-3.1
			c0-0.4-0.1-0.8-0.2-0.9c-0.2-0.2-0.4-0.3-0.8-0.3c-0.6,0-1,0.3-1.4,0.8c0,0.1,0,0.2,0,0.5v3.1H144v-3.1c0-0.4-0.1-0.8-0.2-0.9
			c-0.1-0.2-0.4-0.3-0.8-0.3c-0.6,0-1.1,0.3-1.5,1v3.3h-0.8V52.9z"/>
		<path class="st3" d="M149.8,57.1c-0.5-0.4-0.7-1.1-0.7-1.9c0-0.8,0.2-1.4,0.7-1.9s1.1-0.7,1.9-0.7c0.5,0,1,0.1,1.4,0.3
			s0.7,0.5,0.9,0.9c0.2,0.4,0.3,0.8,0.3,1.2v0.4h-4.3c0,0.5,0.2,0.9,0.6,1.2c0.4,0.3,0.9,0.4,1.5,0.4c0.3,0,0.6,0,0.9-0.1
			c0.3-0.1,0.6-0.1,0.8-0.2v0.6c-0.2,0.1-0.5,0.1-0.8,0.2s-0.7,0.1-1,0.1C151,57.8,150.3,57.6,149.8,57.1z M153.4,55
			c0-0.5-0.2-0.9-0.5-1.2s-0.7-0.4-1.3-0.4c-0.6,0-1,0.2-1.3,0.5c-0.3,0.3-0.5,0.7-0.5,1.2H153.4z"/>
		<path class="st3" d="M155.3,52.9h0.7v0.7c0.2-0.3,0.5-0.5,0.8-0.7c0.3-0.1,0.7-0.2,1.1-0.2c0.6,0,1.1,0.2,1.4,0.5
			c0.3,0.3,0.5,0.8,0.5,1.3v3.1h-0.8v-3c0-0.4-0.1-0.7-0.3-0.9c-0.2-0.2-0.5-0.3-1-0.3c-0.7,0-1.3,0.3-1.7,1v3.3h-0.8V52.9z"/>
		<path class="st3" d="M161.9,57.4c-0.2-0.3-0.4-0.6-0.4-1.1v-2.8h-0.7v-0.6h0.7v-1.4h0.8v1.4h1.2v0.6h-1.2v2.8
			c0,0.3,0.1,0.6,0.2,0.7c0.1,0.1,0.4,0.2,0.7,0.2c0.2,0,0.4,0,0.5-0.1v0.6c-0.2,0.1-0.5,0.1-0.8,0.1
			C162.5,57.8,162.1,57.7,161.9,57.4z"/>
		<path class="st3" d="M168.4,52.9h0.8l1.5,3.8l1.5-3.8h0.8l-1.9,4.8h-0.8L168.4,52.9z"/>
		<path class="st3" d="M174.1,57.5c-0.1-0.1-0.1-0.2-0.1-0.3s0-0.2,0.1-0.3c0.1-0.1,0.2-0.1,0.3-0.1s0.2,0,0.3,0.1s0.1,0.2,0.1,0.3
			s0,0.2-0.1,0.3c-0.1,0.1-0.2,0.1-0.3,0.1S174.2,57.6,174.1,57.5z"/>
		<path class="st3" d="M177.1,57.4c-0.4-0.3-0.7-0.7-1-1.2s-0.3-1.2-0.3-1.9c0-0.7,0.1-1.4,0.3-1.9s0.5-1,1-1.3s0.9-0.4,1.5-0.4
			c0.6,0,1.1,0.1,1.5,0.4c0.4,0.3,0.7,0.7,1,1.3s0.3,1.2,0.3,1.9c0,0.7-0.1,1.4-0.3,1.9c-0.2,0.5-0.5,1-1,1.2
			c-0.4,0.3-0.9,0.4-1.5,0.4C178.1,57.8,177.6,57.7,177.1,57.4z M179.7,56.8c0.3-0.2,0.5-0.6,0.7-1c0.2-0.4,0.3-1,0.3-1.6
			c0-0.6-0.1-1.1-0.2-1.6c-0.2-0.4-0.4-0.8-0.7-1c-0.3-0.2-0.7-0.4-1.1-0.4c-0.4,0-0.8,0.1-1.1,0.4c-0.3,0.2-0.5,0.6-0.7,1
			c-0.2,0.4-0.2,1-0.2,1.6c0,0.6,0.1,1.1,0.3,1.6s0.4,0.8,0.7,1c0.3,0.2,0.7,0.4,1.1,0.4S179.4,57,179.7,56.8z"/>
		<path class="st3" d="M182.5,57.5c-0.1-0.1-0.1-0.2-0.1-0.3s0-0.2,0.1-0.3c0.1-0.1,0.2-0.1,0.3-0.1c0.1,0,0.2,0,0.3,0.1
			s0.1,0.2,0.1,0.3s0,0.2-0.1,0.3c-0.1,0.1-0.2,0.1-0.3,0.1C182.7,57.7,182.6,57.6,182.5,57.5z"/>
		<path class="st3" d="M185.8,51.6l-1.5,1.1v-0.8l1.6-1.2h0.7v6.9h-0.8V51.6z"/>
		<path class="st3" d="M191.7,50.7h3.1c0.6,0,1.1,0.2,1.4,0.5c0.3,0.3,0.5,0.8,0.5,1.4c0,0.4-0.1,0.7-0.2,0.9
			c-0.2,0.3-0.4,0.5-0.7,0.6c0.8,0.2,1.1,0.7,1.1,1.6c0,0.4-0.1,0.7-0.3,1c-0.2,0.3-0.4,0.5-0.7,0.7s-0.6,0.2-1,0.2h-3.2V50.7z
			 M194.7,53.8c0.4,0,0.7-0.1,0.8-0.3c0.2-0.2,0.3-0.5,0.3-0.9c0-0.4-0.1-0.7-0.3-0.9c-0.2-0.2-0.5-0.3-0.9-0.3h-2.2v2.4H194.7z
			 M194.8,57c0.4,0,0.8-0.1,1-0.3s0.3-0.5,0.3-1c0-0.5-0.1-0.8-0.3-1c-0.2-0.2-0.6-0.3-1.1-0.3h-2.2V57H194.8z"/>
		<path class="st3" d="M198.6,57.1c-0.5-0.4-0.7-1.1-0.7-1.9c0-0.8,0.2-1.4,0.7-1.9s1.1-0.7,1.9-0.7c0.5,0,1,0.1,1.4,0.3
			c0.4,0.2,0.7,0.5,0.9,0.9c0.2,0.4,0.3,0.8,0.3,1.2v0.4h-4.3c0,0.5,0.2,0.9,0.6,1.2s0.9,0.4,1.5,0.4c0.3,0,0.6,0,0.9-0.1
			c0.3-0.1,0.6-0.1,0.8-0.2v0.6c-0.2,0.1-0.5,0.1-0.8,0.2c-0.3,0.1-0.7,0.1-1,0.1C199.8,57.8,199.1,57.6,198.6,57.1z M202.2,55
			c0-0.5-0.2-0.9-0.5-1.2s-0.7-0.4-1.3-0.4c-0.6,0-1,0.2-1.3,0.5c-0.3,0.3-0.5,0.7-0.5,1.2H202.2z"/>
		<path class="st3" d="M204.8,57.4c-0.2-0.3-0.4-0.6-0.4-1.1v-2.8h-0.7v-0.6h0.7v-1.4h0.8v1.4h1.2v0.6h-1.2v2.8
			c0,0.3,0.1,0.6,0.2,0.7c0.1,0.1,0.4,0.2,0.7,0.2c0.2,0,0.4,0,0.5-0.1v0.6c-0.2,0.1-0.5,0.1-0.8,0.1
			C205.4,57.8,205.1,57.7,204.8,57.4z"/>
		<path class="st3" d="M207.9,57.4c-0.3-0.3-0.5-0.7-0.5-1.2c0-0.5,0.2-0.9,0.5-1.2c0.3-0.3,0.8-0.4,1.4-0.4c0.7,0,1.3,0.1,1.8,0.4
			v-0.4c0-0.4-0.1-0.7-0.4-1c-0.2-0.2-0.6-0.3-1.2-0.3c-0.6,0-1.1,0.1-1.6,0.3V53c0.2-0.1,0.4-0.2,0.8-0.2c0.3-0.1,0.6-0.1,0.9-0.1
			c0.8,0,1.3,0.2,1.7,0.5c0.4,0.3,0.5,0.8,0.5,1.4v3h-0.7V57c-0.4,0.5-1,0.8-1.9,0.8C208.6,57.8,208.2,57.7,207.9,57.4z M210.4,57
			c0.3-0.1,0.5-0.3,0.6-0.6v-0.8c-0.3-0.2-0.5-0.3-0.8-0.3s-0.5-0.1-0.9-0.1c-0.4,0-0.8,0.1-1,0.3c-0.2,0.2-0.3,0.4-0.3,0.8
			c0,0.7,0.4,1,1.3,1C209.8,57.2,210.1,57.1,210.4,57z"/>
	</g>
</g>
</svg>
